<svg width="549" height="800" viewBox="0 0 549 800" fill="none" xmlns="http://www.w3.org/2000/svg">
<path d="M542.527 53.8598C531.297 37.694 509.091 33.6966 492.927 44.9253L282.535 191.112C225.411 224.283 85.1272 238.954 85.1272 238.954L94.6779 207.654C97.3692 195.302 91.6506 182.162 79.9099 176.01C65.8246 168.632 48.4245 174.066 41.0441 188.152L4.11874 258.63C1.20107 264.241 -0.35118 270.824 0.0674269 277.597C1.2963 297.478 18.4089 312.602 38.2918 311.375L44.7954 310.97L185.093 302.304L245.326 514.262L180.905 626.715L38.8128 697.323C19.1041 707.182 9.79778 730.764 18.1609 751.573C26.9696 773.489 51.8776 784.114 73.7943 775.307L236.857 709.769C244.999 706.507 252.236 700.765 257.329 692.813L357.087 533.924L415.824 606.623L445.429 765.083C449.536 786.737 469.679 802.127 491.982 799.759C515.471 797.267 532.493 776.207 530.002 752.717L511.464 577.959C510.697 570.956 508.157 563.859 503.755 557.729L436.496 464.008L371.348 234.753L535.668 101.908C549.996 90.2588 553.237 69.271 542.527 53.8598Z" fill="#52AE73"/>
<path d="M233.898 195.243C287.815 196.148 332.252 153.177 333.156 99.2651C334.065 45.3601 291.092 0.915941 237.177 0.0140513C183.266 -0.891432 138.829 42.0795 137.925 95.9881C137.02 149.907 179.982 194.341 233.898 195.243Z" fill="#52AE73"/>
</svg>
