<svg width="800" height="785" viewBox="0 0 800 785" fill="none" xmlns="http://www.w3.org/2000/svg">
<path d="M0 385C0 401 5.6 414.6 16.8 425.8C28 437 41.3333 442.6 56.8 442.6C72.2667 442.6 85.8667 437 97.6 425.8C109.333 414.6 114.933 401 114.4 385C114.4 353.533 125.6 326.6 148 304.2C170.4 281.8 197.333 270.6 228.8 270.6C260.267 270.6 287.2 281.8 309.6 304.2C332 326.6 343.2 353.533 343.2 385C343.2 426.6 353.333 465 373.6 500.2C393.867 535.4 421.6 563.133 456.8 583.4C492 603.667 530.133 613.8 571.2 613.8C612.267 613.8 650.667 603.667 686.4 583.4C722.133 563.133 749.867 535.4 769.6 500.2C789.333 465 799.467 426.6 800 385C800 369.533 794.4 356.2 783.2 345C772 333.8 758.667 328.2 743.2 328.2C727.733 328.2 714.133 333.8 702.4 345C690.667 356.2 685.067 369.533 685.6 385C685.6 416.467 674.4 443.4 652 465.8C629.6 488.2 602.667 499.4 571.2 499.4C539.733 499.4 512.8 488.467 490.4 466.6C468 444.733 456.8 417.533 456.8 385C456.8 343.933 446.667 305.8 426.4 270.6C406.133 235.4 378.4 207.667 343.2 187.4C308 167.133 269.867 157 228.8 157C187.733 157 149.333 167.133 113.6 187.4C77.8667 207.667 50.1333 235.4 30.4 270.6C10.6667 305.8 0.533333 343.933 0 385Z" fill="#52AE73"/>
</svg>
