<svg xmlns="http://www.w3.org/2000/svg" xmlns:xlink="http://www.w3.org/1999/xlink" width="1080" zoomAndPan="magnify" viewBox="0 0 810 809.999993" height="1080" preserveAspectRatio="xMidYMid meet" version="1.0"><defs><g/><clipPath id="dbc78cc48c"><path d="M 112 0.125 L 540.8125 0.125 L 540.8125 313 L 112 313 Z M 112 0.125 " clip-rule="nonzero"/></clipPath><clipPath id="78c32c4957"><path d="M 330 321 L 540.8125 321 L 540.8125 439 L 330 439 Z M 330 321 " clip-rule="nonzero"/></clipPath><clipPath id="b56fae6a82"><path d="M 111.4375 321 L 323 321 L 323 439 L 111.4375 439 Z M 111.4375 321 " clip-rule="nonzero"/></clipPath><clipPath id="e9168f08f3"><path d="M 0.199219 44 L 118 44 L 118 164 L 0.199219 164 Z M 0.199219 44 " clip-rule="nonzero"/></clipPath><clipPath id="b8b677a87d"><rect x="0" width="293" y="0" height="199"/></clipPath><clipPath id="aa79c3e59c"><path d="M 0.121094 352 L 648.601562 352 L 648.601562 585.921875 L 0.121094 585.921875 Z M 0.121094 352 " clip-rule="nonzero"/></clipPath><clipPath id="65edf119e3"><rect x="0" width="649" y="0" height="234"/></clipPath><clipPath id="a3d215a184"><path d="M 190.921875 206.917969 L 283.734375 206.917969 L 283.734375 299.730469 L 190.921875 299.730469 Z M 190.921875 206.917969 " clip-rule="nonzero"/></clipPath><clipPath id="75034ea0fa"><rect x="0" width="649" y="0" height="586"/></clipPath></defs><rect x="-81" width="972" fill="#ffffff" y="-80.999999" height="971.999992" fill-opacity="1"/><rect x="-81" width="972" fill="#10415e" y="-80.999999" height="971.999992" fill-opacity="1"/><g transform="matrix(1, 0, 0, 1, 81, 112)"><g clip-path="url(#75034ea0fa)"><g clip-path="url(#dbc78cc48c)"><path fill="#4c9e69" d="M 516.703125 312.351562 C 527.125 287.691406 532.875 260.566406 532.875 232.097656 C 532.875 117.980469 440.367188 25.46875 326.246094 25.46875 C 212.128906 25.46875 119.621094 117.980469 119.621094 232.097656 C 119.621094 260.566406 125.367188 287.691406 135.789062 312.351562 C 120.640625 282.964844 112.070312 249.636719 112.070312 214.300781 C 112.070312 96.015625 207.960938 0.125 326.246094 0.125 C 444.53125 0.125 540.421875 96.015625 540.421875 214.300781 C 540.421875 249.636719 531.855469 282.964844 516.703125 312.351562 Z M 516.703125 312.351562 " fill-opacity="1" fill-rule="nonzero"/></g><g clip-path="url(#78c32c4957)"><path fill="#4c9e69" d="M 541.007812 322.371094 C 501.257812 392.207031 441.285156 440.03125 338.734375 438.359375 C 332.828125 438.261719 328.828125 432.238281 330.96875 426.730469 C 355.644531 363.3125 405.085938 353.777344 458.628906 344.667969 C 461.945312 344.101562 464.472656 347.5625 462.960938 350.566406 C 454.546875 367.253906 417.644531 369.359375 401.644531 390.667969 C 461.121094 397.28125 513.019531 313.820312 541.007812 322.371094 Z M 541.007812 322.371094 " fill-opacity="1" fill-rule="nonzero"/></g><g clip-path="url(#b56fae6a82)"><path fill="#4c9e69" d="M 111.484375 322.371094 C 151.234375 392.207031 211.210938 440.03125 313.757812 438.359375 C 319.667969 438.261719 323.667969 432.238281 321.523438 426.730469 C 296.847656 363.3125 247.40625 353.777344 193.867188 344.667969 C 190.550781 344.101562 188.019531 347.5625 189.535156 350.566406 C 197.949219 367.253906 234.847656 369.359375 250.851562 390.667969 C 191.375 397.28125 139.472656 313.820312 111.484375 322.371094 Z M 111.484375 322.371094 " fill-opacity="1" fill-rule="nonzero"/></g><g transform="matrix(1, 0, 0, 1, 178, 94)"><g clip-path="url(#b8b677a87d)"><g clip-path="url(#e9168f08f3)"><g fill="#ffffff" fill-opacity="1"><g transform="translate(1.858809, 163.552101)"><g><path d="M 115.609375 -119.40625 L 67.390625 0 L 47.3125 0 L -0.90625 -119.40625 L 16.921875 -119.40625 C 18.847656 -119.40625 20.414062 -118.9375 21.625 -118 C 22.84375 -117.0625 23.753906 -115.851562 24.359375 -114.375 L 52.515625 -41.53125 C 53.453125 -39.164062 54.347656 -36.566406 55.203125 -33.734375 C 56.054688 -30.898438 56.867188 -27.941406 57.640625 -24.859375 C 58.296875 -27.941406 59.007812 -30.898438 59.78125 -33.734375 C 60.550781 -36.566406 61.40625 -39.164062 62.34375 -41.53125 L 90.34375 -114.375 C 90.78125 -115.632812 91.644531 -116.785156 92.9375 -117.828125 C 94.226562 -118.878906 95.8125 -119.40625 97.6875 -119.40625 Z M 115.609375 -119.40625 "/></g></g></g></g><g fill="#ffffff" fill-opacity="1"><g transform="translate(121.512309, 163.552101)"><g><path d="M 35.59375 0 L 13.296875 0 L 13.296875 -119.40625 L 35.59375 -119.40625 Z M 35.59375 0 "/></g></g></g><g fill="#ffffff" fill-opacity="1"><g transform="translate(175.43505, 163.552101)"><g><path d="M 76.390625 -45.09375 L 61.84375 -84.8125 C 61.132812 -86.570312 60.394531 -88.660156 59.625 -91.078125 C 58.851562 -93.503906 58.082031 -96.117188 57.3125 -98.921875 C 56.59375 -96.117188 55.847656 -93.492188 55.078125 -91.046875 C 54.304688 -88.597656 53.5625 -86.460938 52.84375 -84.640625 L 38.40625 -45.09375 Z M 115.609375 0 L 98.4375 0 C 96.507812 0 94.9375 -0.476562 93.71875 -1.4375 C 92.507812 -2.40625 91.601562 -3.601562 91 -5.03125 L 82.078125 -29.390625 L 32.625 -29.390625 L 23.703125 -5.03125 C 23.265625 -3.769531 22.410156 -2.613281 21.140625 -1.5625 C 19.867188 -0.519531 18.300781 0 16.4375 0 L -0.90625 0 L 46.078125 -119.40625 L 68.703125 -119.40625 Z M 115.609375 0 "/></g></g></g></g></g><g clip-path="url(#aa79c3e59c)"><g transform="matrix(1, 0, 0, 1, 0, 352)"><g clip-path="url(#65edf119e3)"><g fill="#ffffff" fill-opacity="1"><g transform="translate(14.627545, 53.934361)"><g><path d="M 58.59375 25.328125 L 40.6875 40.09375 C 37.0625 39.144531 33.734375 37.6875 30.703125 35.71875 C 27.679688 33.75 24.867188 31.179688 22.265625 28.015625 C 19.160156 24.253906 16.941406 20.390625 15.609375 16.421875 C 14.285156 12.453125 13.789062 8.535156 14.125 4.671875 C 14.457031 0.804688 15.613281 -2.90625 17.59375 -6.46875 C 19.570312 -10.03125 22.316406 -13.257812 25.828125 -16.15625 C 29.378906 -19.09375 33.082031 -21.210938 36.9375 -22.515625 C 40.789062 -23.816406 44.613281 -24.300781 48.40625 -23.96875 C 52.195312 -23.632812 55.878906 -22.46875 59.453125 -20.46875 C 63.035156 -18.46875 66.332031 -15.644531 69.34375 -12 C 70.863281 -10.15625 72.144531 -8.328125 73.1875 -6.515625 C 74.226562 -4.710938 75.046875 -2.929688 75.640625 -1.171875 C 76.234375 0.585938 76.644531 2.34375 76.875 4.09375 C 77.101562 5.851562 77.175781 7.609375 77.09375 9.359375 L 72.734375 9.921875 C 72.078125 9.992188 71.5 9.851562 71 9.5 C 70.507812 9.15625 70.207031 8.582031 70.09375 7.78125 C 69.96875 7.007812 69.847656 6.109375 69.734375 5.078125 C 69.617188 4.046875 69.359375 2.878906 68.953125 1.578125 C 68.546875 0.285156 67.945312 -1.128906 67.15625 -2.671875 C 66.363281 -4.210938 65.222656 -5.882812 63.734375 -7.6875 C 61.566406 -10.3125 59.175781 -12.332031 56.5625 -13.75 C 53.945312 -15.164062 51.222656 -15.960938 48.390625 -16.140625 C 45.554688 -16.328125 42.675781 -15.882812 39.75 -14.8125 C 36.832031 -13.75 33.960938 -12.050781 31.140625 -9.71875 C 28.210938 -7.3125 25.9375 -4.738281 24.3125 -2 C 22.695312 0.738281 21.71875 3.550781 21.375 6.4375 C 21.039062 9.332031 21.363281 12.234375 22.34375 15.140625 C 23.320312 18.046875 24.953125 20.875 27.234375 23.625 C 29.023438 25.800781 30.851562 27.53125 32.71875 28.8125 C 34.59375 30.09375 36.625 31.175781 38.8125 32.0625 L 49.078125 23.59375 L 43.09375 16.34375 C 42.75 15.9375 42.59375 15.507812 42.625 15.0625 C 42.65625 14.613281 42.84375 14.25 43.1875 13.96875 L 46.78125 11.015625 Z M 58.59375 25.328125 "/></g></g></g><g fill="#ffffff" fill-opacity="1"><g transform="translate(64.866126, 111.864004)"><g><path d="M 38.796875 0.75 L 23.484375 19.34375 L 17.15625 14.140625 L 32.46875 -4.453125 L 38.5 -46.625 L 44.03125 -42.0625 C 44.601562 -41.59375 44.9375 -41.085938 45.03125 -40.546875 C 45.132812 -40.003906 45.128906 -39.421875 45.015625 -38.796875 L 40.765625 -11.859375 C 40.515625 -10.773438 40.273438 -9.765625 40.046875 -8.828125 C 39.828125 -7.898438 39.566406 -7.003906 39.265625 -6.140625 C 40.054688 -6.609375 40.875 -7.050781 41.71875 -7.46875 C 42.570312 -7.882812 43.5 -8.320312 44.5 -8.78125 L 70.09375 -18.140625 C 70.582031 -18.335938 71.125 -18.445312 71.71875 -18.46875 C 72.320312 -18.5 72.894531 -18.289062 73.4375 -17.84375 L 79.015625 -13.25 Z M 38.796875 0.75 "/></g></g></g><g fill="#ffffff" fill-opacity="1"><g transform="translate(117.927019, 154.517846)"><g><path d="M 70.3125 3.15625 C 68.1875 7.15625 65.597656 10.488281 62.546875 13.15625 C 59.503906 15.820312 56.1875 17.742188 52.59375 18.921875 C 49.007812 20.109375 45.242188 20.503906 41.296875 20.109375 C 37.359375 19.710938 33.425781 18.472656 29.5 16.390625 C 25.570312 14.296875 22.34375 11.726562 19.8125 8.6875 C 17.289062 5.65625 15.515625 2.320312 14.484375 -1.3125 C 13.460938 -4.957031 13.207031 -8.785156 13.71875 -12.796875 C 14.226562 -16.804688 15.546875 -20.8125 17.671875 -24.8125 C 19.796875 -28.8125 22.378906 -32.144531 25.421875 -34.8125 C 28.460938 -37.476562 31.78125 -39.40625 35.375 -40.59375 C 38.96875 -41.789062 42.734375 -42.203125 46.671875 -41.828125 C 50.617188 -41.453125 54.554688 -40.21875 58.484375 -38.125 C 62.410156 -36.039062 65.632812 -33.46875 68.15625 -30.40625 C 70.6875 -27.351562 72.460938 -24 73.484375 -20.34375 C 74.503906 -16.695312 74.757812 -12.867188 74.25 -8.859375 C 73.75 -4.847656 72.4375 -0.84375 70.3125 3.15625 Z M 62.90625 -0.78125 C 64.65625 -4.0625 65.773438 -7.242188 66.265625 -10.328125 C 66.753906 -13.410156 66.65625 -16.285156 65.96875 -18.953125 C 65.28125 -21.617188 64.023438 -24.054688 62.203125 -26.265625 C 60.390625 -28.472656 58.039062 -30.34375 55.15625 -31.875 C 52.300781 -33.394531 49.445312 -34.289062 46.59375 -34.5625 C 43.75 -34.832031 41.023438 -34.507812 38.421875 -33.59375 C 35.816406 -32.675781 33.375 -31.148438 31.09375 -29.015625 C 28.8125 -26.878906 26.796875 -24.171875 25.046875 -20.890625 C 23.304688 -17.617188 22.191406 -14.445312 21.703125 -11.375 C 21.222656 -8.300781 21.328125 -5.421875 22.015625 -2.734375 C 22.710938 -0.0546875 23.972656 2.375 25.796875 4.5625 C 27.628906 6.757812 29.972656 8.617188 32.828125 10.140625 C 35.710938 11.671875 38.570312 12.578125 41.40625 12.859375 C 44.25 13.148438 46.96875 12.828125 49.5625 11.890625 C 52.164062 10.960938 54.601562 9.4375 56.875 7.3125 C 59.15625 5.1875 61.164062 2.488281 62.90625 -0.78125 Z M 80.609375 -45.625 L 62.8125 -41.421875 C 62.257812 -41.273438 61.789062 -41.253906 61.40625 -41.359375 C 61.019531 -41.472656 60.578125 -41.664062 60.078125 -41.9375 L 55.3125 -44.46875 L 69.34375 -50.09375 C 70.050781 -50.414062 70.648438 -50.519531 71.140625 -50.40625 C 71.640625 -50.300781 72.304688 -50.03125 73.140625 -49.59375 Z M 80.609375 -45.625 "/></g></g></g><g fill="#ffffff" fill-opacity="1"><g transform="translate(192.424303, 191.836335)"><g><path d="M 62.578125 -12.546875 L 56.28125 9.78125 C 52.757812 11.0625 49.191406 11.753906 45.578125 11.859375 C 41.972656 11.972656 38.195312 11.472656 34.25 10.359375 C 29.5625 9.035156 25.539062 7.117188 22.1875 4.609375 C 18.84375 2.097656 16.203125 -0.832031 14.265625 -4.1875 C 12.335938 -7.550781 11.171875 -11.265625 10.765625 -15.328125 C 10.359375 -19.390625 10.773438 -23.609375 12.015625 -27.984375 C 13.265625 -32.429688 15.101562 -36.285156 17.53125 -39.546875 C 19.957031 -42.804688 22.820312 -45.378906 26.125 -47.265625 C 29.4375 -49.148438 33.132812 -50.289062 37.21875 -50.6875 C 41.300781 -51.082031 45.617188 -50.640625 50.171875 -49.359375 C 52.472656 -48.710938 54.566406 -47.941406 56.453125 -47.046875 C 58.335938 -46.148438 60.023438 -45.144531 61.515625 -44.03125 C 63.003906 -42.925781 64.335938 -41.71875 65.515625 -40.40625 C 66.703125 -39.09375 67.765625 -37.691406 68.703125 -36.203125 L 65.4375 -33.265625 C 64.9375 -32.816406 64.382812 -32.59375 63.78125 -32.59375 C 63.1875 -32.601562 62.609375 -32.910156 62.046875 -33.515625 C 61.515625 -34.078125 60.90625 -34.742188 60.21875 -35.515625 C 59.53125 -36.296875 58.648438 -37.109375 57.578125 -37.953125 C 56.515625 -38.796875 55.210938 -39.625 53.671875 -40.4375 C 52.140625 -41.25 50.253906 -41.972656 48.015625 -42.609375 C 44.734375 -43.535156 41.613281 -43.832031 38.65625 -43.5 C 35.707031 -43.175781 33.015625 -42.285156 30.578125 -40.828125 C 28.148438 -39.367188 26.035156 -37.363281 24.234375 -34.8125 C 22.429688 -32.269531 21.035156 -29.238281 20.046875 -25.71875 C 19.015625 -22.070312 18.613281 -18.660156 18.84375 -15.484375 C 19.082031 -12.316406 19.878906 -9.445312 21.234375 -6.875 C 22.597656 -4.3125 24.507812 -2.113281 26.96875 -0.28125 C 29.4375 1.550781 32.390625 2.953125 35.828125 3.921875 C 38.535156 4.679688 41.023438 5.054688 43.296875 5.046875 C 45.578125 5.035156 47.867188 4.769531 50.171875 4.25 L 53.78125 -8.546875 L 44.734375 -11.09375 C 44.222656 -11.238281 43.851562 -11.503906 43.625 -11.890625 C 43.394531 -12.273438 43.335938 -12.679688 43.453125 -13.109375 L 44.71875 -17.578125 Z M 62.578125 -12.546875 "/></g></g></g><g fill="#ffffff" fill-opacity="1"><g transform="translate(266.707487, 210.842908)"><g><path d="M 32.3125 -21.484375 L 30.3125 2.53125 L 22.15625 1.84375 L 24.15625 -22.171875 L 5.09375 -60.25 L 12.234375 -59.640625 C 12.972656 -59.585938 13.539062 -59.367188 13.9375 -58.984375 C 14.332031 -58.597656 14.65625 -58.109375 14.90625 -57.515625 L 26.75 -32.953125 C 27.164062 -31.929688 27.546875 -30.972656 27.890625 -30.078125 C 28.242188 -29.179688 28.539062 -28.289062 28.78125 -27.40625 C 29.164062 -28.238281 29.585938 -29.066406 30.046875 -29.890625 C 30.503906 -30.722656 31.015625 -31.609375 31.578125 -32.546875 L 47.28125 -54.828125 C 47.570312 -55.273438 47.957031 -55.675781 48.4375 -56.03125 C 48.914062 -56.394531 49.503906 -56.546875 50.203125 -56.484375 L 57.390625 -55.890625 Z M 32.3125 -21.484375 "/></g></g></g><g fill="#ffffff" fill-opacity="1"><g transform="translate(333.718091, 215.029763)"><g><path d="M 43.484375 -57.796875 L 24 -56.015625 L 28.90625 -2.65625 L 20.78125 -1.90625 L 15.875 -55.265625 L -3.640625 -53.46875 L -4.265625 -60.3125 L 42.859375 -64.640625 Z M 43.484375 -57.796875 "/></g></g></g><g fill="#ffffff" fill-opacity="1"><g transform="translate(398.506093, 208.440679)"><g><path d="M 52.375 -47.015625 C 53.664062 -42.671875 54.160156 -38.476562 53.859375 -34.4375 C 53.554688 -30.40625 52.535156 -26.710938 50.796875 -23.359375 C 49.066406 -20.003906 46.65625 -17.085938 43.5625 -14.609375 C 40.46875 -12.128906 36.789062 -10.253906 32.53125 -8.984375 C 28.269531 -7.722656 24.175781 -7.289062 20.25 -7.6875 C 16.320312 -8.09375 12.710938 -9.226562 9.421875 -11.09375 C 6.140625 -12.96875 3.273438 -15.515625 0.828125 -18.734375 C -1.609375 -21.953125 -3.472656 -25.734375 -4.765625 -30.078125 C -6.054688 -34.421875 -6.550781 -38.609375 -6.25 -42.640625 C -5.957031 -46.679688 -4.941406 -50.390625 -3.203125 -53.765625 C -1.472656 -57.140625 0.925781 -60.070312 4 -62.5625 C 7.070312 -65.050781 10.738281 -66.925781 15 -68.1875 C 19.257812 -69.457031 23.363281 -69.882812 27.3125 -69.46875 C 31.257812 -69.0625 34.875 -67.910156 38.15625 -66.015625 C 41.445312 -64.128906 44.316406 -61.578125 46.765625 -58.359375 C 49.210938 -55.140625 51.082031 -51.359375 52.375 -47.015625 Z M 44.34375 -44.625 C 43.289062 -48.195312 41.859375 -51.253906 40.046875 -53.796875 C 38.234375 -56.335938 36.144531 -58.320312 33.78125 -59.75 C 31.425781 -61.175781 28.820312 -62.039062 25.96875 -62.34375 C 23.125 -62.644531 20.140625 -62.332031 17.015625 -61.40625 C 13.910156 -60.488281 11.25 -59.125 9.03125 -57.3125 C 6.8125 -55.507812 5.09375 -53.363281 3.875 -50.875 C 2.664062 -48.394531 1.992188 -45.597656 1.859375 -42.484375 C 1.722656 -39.367188 2.179688 -36.023438 3.234375 -32.453125 C 4.285156 -28.898438 5.71875 -25.851562 7.53125 -23.3125 C 9.34375 -20.78125 11.429688 -18.800781 13.796875 -17.375 C 16.171875 -15.957031 18.773438 -15.101562 21.609375 -14.8125 C 24.453125 -14.53125 27.425781 -14.847656 30.53125 -15.765625 C 33.65625 -16.691406 36.332031 -18.050781 38.5625 -19.84375 C 40.789062 -21.632812 42.503906 -23.769531 43.703125 -26.25 C 44.910156 -28.726562 45.582031 -31.519531 45.71875 -34.625 C 45.851562 -37.738281 45.394531 -41.070312 44.34375 -44.625 Z M 44.34375 -44.625 "/></g></g></g><g fill="#ffffff" fill-opacity="1"><g transform="translate(477.275002, 182.733594)"><g><path d="M 6.96875 -39 C 9.050781 -40.113281 10.753906 -41.347656 12.078125 -42.703125 C 13.410156 -44.066406 14.367188 -45.503906 14.953125 -47.015625 C 15.546875 -48.523438 15.769531 -50.066406 15.625 -51.640625 C 15.488281 -53.222656 15.007812 -54.796875 14.1875 -56.359375 C 12.488281 -59.535156 10.164062 -61.375 7.21875 -61.875 C 4.269531 -62.382812 0.710938 -61.535156 -3.453125 -59.328125 L -11.359375 -55.125 L -0.640625 -34.96875 Z M 46.25 -24.59375 L 39.859375 -21.1875 C 38.535156 -20.488281 37.289062 -20.484375 36.125 -21.171875 L 12.140625 -32.875 C 11.398438 -33.25 10.71875 -33.4375 10.09375 -33.4375 C 9.476562 -33.445312 8.660156 -33.179688 7.640625 -32.640625 L 2.15625 -29.734375 L 14 -7.453125 L 6.8125 -3.625 L -21.5625 -57 L -6.46875 -65.03125 C -3.09375 -66.820312 0 -68.03125 2.8125 -68.65625 C 5.632812 -69.28125 8.191406 -69.367188 10.484375 -68.921875 C 12.773438 -68.484375 14.785156 -67.554688 16.515625 -66.140625 C 18.253906 -64.734375 19.726562 -62.898438 20.9375 -60.640625 C 21.9375 -58.753906 22.570312 -56.832031 22.84375 -54.875 C 23.113281 -52.914062 23.035156 -50.984375 22.609375 -49.078125 C 22.179688 -47.171875 21.394531 -45.328125 20.25 -43.546875 C 19.113281 -41.765625 17.640625 -40.085938 15.828125 -38.515625 C 17.023438 -38.484375 18.222656 -38.148438 19.421875 -37.515625 Z M 46.25 -24.59375 "/></g></g></g><g fill="#ffffff" fill-opacity="1"><g transform="translate(536.986055, 149.924701)"><g><path d="M 5.65625 -82.6875 L 43.90625 -35.875 L 40.75 -33.28125 C 40.25 -32.875 39.753906 -32.617188 39.265625 -32.515625 C 38.785156 -32.410156 38.222656 -32.429688 37.578125 -32.578125 L -18.34375 -45.734375 C -17.863281 -45.234375 -17.398438 -44.726562 -16.953125 -44.21875 C -16.503906 -43.71875 -16.09375 -43.238281 -15.71875 -42.78125 L 11.53125 -9.421875 L 5.984375 -4.890625 L -32.265625 -51.703125 L -29 -54.359375 C -28.71875 -54.585938 -28.460938 -54.765625 -28.234375 -54.890625 C -28.015625 -55.023438 -27.796875 -55.113281 -27.578125 -55.15625 C -27.367188 -55.207031 -27.128906 -55.222656 -26.859375 -55.203125 C -26.585938 -55.191406 -26.273438 -55.148438 -25.921875 -55.078125 L 29.953125 -41.953125 C 29.441406 -42.484375 28.953125 -43 28.484375 -43.5 C 28.023438 -44.007812 27.597656 -44.503906 27.203125 -44.984375 L 0.109375 -78.140625 Z M 5.65625 -82.6875 "/></g></g></g><g fill="#ffffff" fill-opacity="1"><g transform="translate(597.563717, 97.94898)"><g><path d="M 7.765625 -45.0625 L -17.3125 -53.21875 C -18.0625 -53.46875 -18.910156 -53.773438 -19.859375 -54.140625 C -20.804688 -54.515625 -21.796875 -54.9375 -22.828125 -55.40625 C -21.441406 -53.519531 -20.347656 -51.851562 -19.546875 -50.40625 L -6.5 -27.546875 Z M 35.90625 -44.09375 L 31.921875 -39.1875 C 31.453125 -38.613281 30.9375 -38.269531 30.375 -38.15625 C 29.8125 -38.039062 29.238281 -38.070312 28.65625 -38.25 L 13.78125 -43.09375 L -3.359375 -22.046875 L 4.390625 -8.453125 C 4.660156 -8.003906 4.800781 -7.46875 4.8125 -6.84375 C 4.820312 -6.226562 4.601562 -5.644531 4.15625 -5.09375 L 0.15625 -0.1875 L -31.453125 -57.109375 L -26.234375 -63.515625 Z M 35.90625 -44.09375 "/></g></g></g></g></g></g><g clip-path="url(#a3d215a184)"><path fill="#4c9e69" d="M 237.261719 299.605469 C 239.488281 257.285156 241.289062 255.484375 283.613281 253.257812 C 241.289062 251.03125 239.488281 249.230469 237.261719 206.90625 C 235.035156 249.230469 233.234375 251.03125 190.914062 253.257812 C 233.234375 255.484375 235.035156 257.285156 237.261719 299.605469 Z M 237.261719 299.605469 " fill-opacity="1" fill-rule="nonzero"/></g></g></g></svg>